<mxfile host="app.diagrams.net" modified="2022-01-28T08:25:59.967Z" agent="5.0 (Windows NT 10.0; Win64; x64) AppleWebKit/537.36 (KHTML, like Gecko) Chrome/97.0.4692.99 Safari/537.36" etag="A_ijEnhRUB3g20zjHyqg" version="16.4.7" type="github">
  <diagram id="Q9IJvHOdUICt4wrQLFCN" name="线性表反转">
    <mxGraphModel dx="1038" dy="664" grid="1" gridSize="10" guides="1" tooltips="1" connect="1" arrows="1" fold="1" page="1" pageScale="1" pageWidth="827" pageHeight="1169" math="0" shadow="0">
      <root>
        <mxCell id="0" />
        <mxCell id="1" parent="0" />
        <mxCell id="tX1sgGfC7uJerNOTjPG7-5" value="" style="edgeStyle=orthogonalEdgeStyle;rounded=0;orthogonalLoop=1;jettySize=auto;html=1;" edge="1" parent="1" source="tX1sgGfC7uJerNOTjPG7-1" target="tX1sgGfC7uJerNOTjPG7-4">
          <mxGeometry relative="1" as="geometry" />
        </mxCell>
        <mxCell id="tX1sgGfC7uJerNOTjPG7-1" value="1" style="rounded=0;whiteSpace=wrap;html=1;" vertex="1" parent="1">
          <mxGeometry x="60" y="220" width="70" height="50" as="geometry" />
        </mxCell>
        <mxCell id="tX1sgGfC7uJerNOTjPG7-3" value="3" style="rounded=0;whiteSpace=wrap;html=1;" vertex="1" parent="1">
          <mxGeometry x="340" y="220" width="70" height="50" as="geometry" />
        </mxCell>
        <mxCell id="tX1sgGfC7uJerNOTjPG7-6" value="" style="edgeStyle=orthogonalEdgeStyle;rounded=0;orthogonalLoop=1;jettySize=auto;html=1;" edge="1" parent="1" source="tX1sgGfC7uJerNOTjPG7-4" target="tX1sgGfC7uJerNOTjPG7-3">
          <mxGeometry relative="1" as="geometry" />
        </mxCell>
        <mxCell id="tX1sgGfC7uJerNOTjPG7-4" value="2" style="rounded=0;whiteSpace=wrap;html=1;" vertex="1" parent="1">
          <mxGeometry x="200" y="220" width="70" height="50" as="geometry" />
        </mxCell>
        <mxCell id="tX1sgGfC7uJerNOTjPG7-10" value="&lt;b&gt;&lt;font style=&quot;font-size: 18px&quot;&gt;p&lt;/font&gt;&lt;/b&gt;" style="text;html=1;align=center;verticalAlign=middle;resizable=0;points=[];autosize=1;strokeColor=none;fillColor=none;" vertex="1" parent="1">
          <mxGeometry x="210" y="310" width="30" height="20" as="geometry" />
        </mxCell>
        <mxCell id="tX1sgGfC7uJerNOTjPG7-11" value="2" style="rounded=0;whiteSpace=wrap;html=1;" vertex="1" parent="1">
          <mxGeometry x="320" y="340" width="70" height="50" as="geometry" />
        </mxCell>
        <mxCell id="tX1sgGfC7uJerNOTjPG7-18" value="" style="edgeStyle=orthogonalEdgeStyle;rounded=0;orthogonalLoop=1;jettySize=auto;html=1;fontSize=18;entryX=1;entryY=0.5;entryDx=0;entryDy=0;" edge="1" parent="1" source="tX1sgGfC7uJerNOTjPG7-12" target="tX1sgGfC7uJerNOTjPG7-15">
          <mxGeometry relative="1" as="geometry" />
        </mxCell>
        <mxCell id="tX1sgGfC7uJerNOTjPG7-12" value="1" style="rounded=0;whiteSpace=wrap;html=1;" vertex="1" parent="1">
          <mxGeometry x="190" y="340" width="70" height="50" as="geometry" />
        </mxCell>
        <mxCell id="tX1sgGfC7uJerNOTjPG7-14" value="next" style="text;html=1;align=center;verticalAlign=middle;resizable=0;points=[];autosize=1;strokeColor=none;fillColor=none;fontSize=18;" vertex="1" parent="1">
          <mxGeometry x="330" y="310" width="50" height="30" as="geometry" />
        </mxCell>
        <mxCell id="tX1sgGfC7uJerNOTjPG7-15" value="NULL" style="rounded=0;whiteSpace=wrap;html=1;" vertex="1" parent="1">
          <mxGeometry x="60" y="340" width="70" height="50" as="geometry" />
        </mxCell>
        <mxCell id="tX1sgGfC7uJerNOTjPG7-16" value="pre" style="text;html=1;align=center;verticalAlign=middle;resizable=0;points=[];autosize=1;strokeColor=none;fillColor=none;fontSize=18;" vertex="1" parent="1">
          <mxGeometry x="75" y="310" width="40" height="30" as="geometry" />
        </mxCell>
        <mxCell id="tX1sgGfC7uJerNOTjPG7-20" value="&lt;b&gt;&lt;font style=&quot;font-size: 18px&quot;&gt;p&lt;/font&gt;&lt;/b&gt;" style="text;html=1;align=center;verticalAlign=middle;resizable=0;points=[];autosize=1;strokeColor=none;fillColor=none;" vertex="1" parent="1">
          <mxGeometry x="340" y="440" width="30" height="20" as="geometry" />
        </mxCell>
        <mxCell id="tX1sgGfC7uJerNOTjPG7-21" value="" style="edgeStyle=orthogonalEdgeStyle;rounded=0;orthogonalLoop=1;jettySize=auto;html=1;fontSize=18;" edge="1" source="tX1sgGfC7uJerNOTjPG7-22" target="tX1sgGfC7uJerNOTjPG7-24" parent="1">
          <mxGeometry relative="1" as="geometry" />
        </mxCell>
        <mxCell id="tX1sgGfC7uJerNOTjPG7-22" value="2" style="rounded=0;whiteSpace=wrap;html=1;" vertex="1" parent="1">
          <mxGeometry x="320" y="470" width="70" height="50" as="geometry" />
        </mxCell>
        <mxCell id="tX1sgGfC7uJerNOTjPG7-23" value="" style="edgeStyle=orthogonalEdgeStyle;rounded=0;orthogonalLoop=1;jettySize=auto;html=1;fontSize=18;entryX=1;entryY=0.5;entryDx=0;entryDy=0;" edge="1" source="tX1sgGfC7uJerNOTjPG7-24" target="tX1sgGfC7uJerNOTjPG7-26" parent="1">
          <mxGeometry relative="1" as="geometry" />
        </mxCell>
        <mxCell id="tX1sgGfC7uJerNOTjPG7-24" value="1" style="rounded=0;whiteSpace=wrap;html=1;" vertex="1" parent="1">
          <mxGeometry x="190" y="470" width="70" height="50" as="geometry" />
        </mxCell>
        <mxCell id="tX1sgGfC7uJerNOTjPG7-25" value="next" style="text;html=1;align=center;verticalAlign=middle;resizable=0;points=[];autosize=1;strokeColor=none;fillColor=none;fontSize=18;" vertex="1" parent="1">
          <mxGeometry x="470" y="440" width="50" height="30" as="geometry" />
        </mxCell>
        <mxCell id="tX1sgGfC7uJerNOTjPG7-26" value="NULL" style="rounded=0;whiteSpace=wrap;html=1;" vertex="1" parent="1">
          <mxGeometry x="60" y="470" width="70" height="50" as="geometry" />
        </mxCell>
        <mxCell id="tX1sgGfC7uJerNOTjPG7-27" value="pre" style="text;html=1;align=center;verticalAlign=middle;resizable=0;points=[];autosize=1;strokeColor=none;fillColor=none;fontSize=18;" vertex="1" parent="1">
          <mxGeometry x="210" y="440" width="40" height="30" as="geometry" />
        </mxCell>
        <mxCell id="tX1sgGfC7uJerNOTjPG7-28" value="3" style="rounded=0;whiteSpace=wrap;html=1;" vertex="1" parent="1">
          <mxGeometry x="460" y="470" width="70" height="50" as="geometry" />
        </mxCell>
        <mxCell id="tX1sgGfC7uJerNOTjPG7-30" value="&lt;b&gt;&lt;font style=&quot;font-size: 18px&quot;&gt;p&lt;/font&gt;&lt;/b&gt;" style="text;html=1;align=center;verticalAlign=middle;resizable=0;points=[];autosize=1;strokeColor=none;fillColor=none;" vertex="1" parent="1">
          <mxGeometry x="480" y="545" width="30" height="20" as="geometry" />
        </mxCell>
        <mxCell id="tX1sgGfC7uJerNOTjPG7-31" value="" style="edgeStyle=orthogonalEdgeStyle;rounded=0;orthogonalLoop=1;jettySize=auto;html=1;fontSize=18;" edge="1" source="tX1sgGfC7uJerNOTjPG7-32" target="tX1sgGfC7uJerNOTjPG7-34" parent="1">
          <mxGeometry relative="1" as="geometry" />
        </mxCell>
        <mxCell id="tX1sgGfC7uJerNOTjPG7-32" value="2" style="rounded=0;whiteSpace=wrap;html=1;" vertex="1" parent="1">
          <mxGeometry x="320" y="575" width="70" height="50" as="geometry" />
        </mxCell>
        <mxCell id="tX1sgGfC7uJerNOTjPG7-33" value="" style="edgeStyle=orthogonalEdgeStyle;rounded=0;orthogonalLoop=1;jettySize=auto;html=1;fontSize=18;entryX=1;entryY=0.5;entryDx=0;entryDy=0;" edge="1" source="tX1sgGfC7uJerNOTjPG7-34" target="tX1sgGfC7uJerNOTjPG7-36" parent="1">
          <mxGeometry relative="1" as="geometry" />
        </mxCell>
        <mxCell id="tX1sgGfC7uJerNOTjPG7-34" value="1" style="rounded=0;whiteSpace=wrap;html=1;" vertex="1" parent="1">
          <mxGeometry x="190" y="575" width="70" height="50" as="geometry" />
        </mxCell>
        <mxCell id="tX1sgGfC7uJerNOTjPG7-35" value="next" style="text;html=1;align=center;verticalAlign=middle;resizable=0;points=[];autosize=1;strokeColor=none;fillColor=none;fontSize=18;" vertex="1" parent="1">
          <mxGeometry x="590" y="545" width="50" height="30" as="geometry" />
        </mxCell>
        <mxCell id="tX1sgGfC7uJerNOTjPG7-36" value="NULL" style="rounded=0;whiteSpace=wrap;html=1;" vertex="1" parent="1">
          <mxGeometry x="60" y="575" width="70" height="50" as="geometry" />
        </mxCell>
        <mxCell id="tX1sgGfC7uJerNOTjPG7-37" value="pre" style="text;html=1;align=center;verticalAlign=middle;resizable=0;points=[];autosize=1;strokeColor=none;fillColor=none;fontSize=18;" vertex="1" parent="1">
          <mxGeometry x="340" y="545" width="40" height="30" as="geometry" />
        </mxCell>
        <mxCell id="tX1sgGfC7uJerNOTjPG7-39" value="" style="edgeStyle=orthogonalEdgeStyle;rounded=0;orthogonalLoop=1;jettySize=auto;html=1;fontSize=18;entryX=1;entryY=0.5;entryDx=0;entryDy=0;" edge="1" parent="1" source="tX1sgGfC7uJerNOTjPG7-38" target="tX1sgGfC7uJerNOTjPG7-32">
          <mxGeometry relative="1" as="geometry" />
        </mxCell>
        <mxCell id="tX1sgGfC7uJerNOTjPG7-38" value="3" style="rounded=0;whiteSpace=wrap;html=1;" vertex="1" parent="1">
          <mxGeometry x="460" y="575" width="70" height="50" as="geometry" />
        </mxCell>
        <mxCell id="tX1sgGfC7uJerNOTjPG7-40" value="&lt;b&gt;&lt;font style=&quot;font-size: 18px&quot;&gt;p&lt;/font&gt;&lt;/b&gt;" style="text;html=1;align=center;verticalAlign=middle;resizable=0;points=[];autosize=1;strokeColor=none;fillColor=none;" vertex="1" parent="1">
          <mxGeometry x="580" y="665" width="30" height="20" as="geometry" />
        </mxCell>
        <mxCell id="tX1sgGfC7uJerNOTjPG7-41" value="" style="edgeStyle=orthogonalEdgeStyle;rounded=0;orthogonalLoop=1;jettySize=auto;html=1;fontSize=18;" edge="1" source="tX1sgGfC7uJerNOTjPG7-42" target="tX1sgGfC7uJerNOTjPG7-44" parent="1">
          <mxGeometry relative="1" as="geometry" />
        </mxCell>
        <mxCell id="tX1sgGfC7uJerNOTjPG7-42" value="2" style="rounded=0;whiteSpace=wrap;html=1;" vertex="1" parent="1">
          <mxGeometry x="320" y="690" width="70" height="50" as="geometry" />
        </mxCell>
        <mxCell id="tX1sgGfC7uJerNOTjPG7-43" value="" style="edgeStyle=orthogonalEdgeStyle;rounded=0;orthogonalLoop=1;jettySize=auto;html=1;fontSize=18;entryX=1;entryY=0.5;entryDx=0;entryDy=0;" edge="1" source="tX1sgGfC7uJerNOTjPG7-44" target="tX1sgGfC7uJerNOTjPG7-46" parent="1">
          <mxGeometry relative="1" as="geometry" />
        </mxCell>
        <mxCell id="tX1sgGfC7uJerNOTjPG7-44" value="1" style="rounded=0;whiteSpace=wrap;html=1;" vertex="1" parent="1">
          <mxGeometry x="190" y="690" width="70" height="50" as="geometry" />
        </mxCell>
        <mxCell id="tX1sgGfC7uJerNOTjPG7-45" value="next" style="text;html=1;align=center;verticalAlign=middle;resizable=0;points=[];autosize=1;strokeColor=none;fillColor=none;fontSize=18;" vertex="1" parent="1">
          <mxGeometry x="680" y="660" width="50" height="30" as="geometry" />
        </mxCell>
        <mxCell id="tX1sgGfC7uJerNOTjPG7-46" value="NULL" style="rounded=0;whiteSpace=wrap;html=1;" vertex="1" parent="1">
          <mxGeometry x="60" y="690" width="70" height="50" as="geometry" />
        </mxCell>
        <mxCell id="tX1sgGfC7uJerNOTjPG7-47" value="pre" style="text;html=1;align=center;verticalAlign=middle;resizable=0;points=[];autosize=1;strokeColor=none;fillColor=none;fontSize=18;" vertex="1" parent="1">
          <mxGeometry x="480" y="660" width="40" height="30" as="geometry" />
        </mxCell>
        <mxCell id="tX1sgGfC7uJerNOTjPG7-48" value="" style="edgeStyle=orthogonalEdgeStyle;rounded=0;orthogonalLoop=1;jettySize=auto;html=1;fontSize=18;entryX=1;entryY=0.5;entryDx=0;entryDy=0;" edge="1" source="tX1sgGfC7uJerNOTjPG7-49" target="tX1sgGfC7uJerNOTjPG7-42" parent="1">
          <mxGeometry relative="1" as="geometry" />
        </mxCell>
        <mxCell id="tX1sgGfC7uJerNOTjPG7-49" value="3" style="rounded=0;whiteSpace=wrap;html=1;" vertex="1" parent="1">
          <mxGeometry x="460" y="690" width="70" height="50" as="geometry" />
        </mxCell>
      </root>
    </mxGraphModel>
  </diagram>
</mxfile>
